<?xml version="1.0" encoding="UTF-8" standalone="no"?>
<!-- Created with Inkscape (http://www.inkscape.org/) -->

<svg
   width="35mm"
   height="10mm"
   viewBox="0 0 35 10"
   version="1.1"
   id="svg1"
   xmlns="http://www.w3.org/2000/svg"
   xmlns:svg="http://www.w3.org/2000/svg">
  <defs
     id="defs1" />
  <g
     id="layer1"
     transform="translate(-7.6367531,-84.513405)">
    <g
       id="g3"
       transform="translate(-1.9394199,-4.549432)">
      <g
         id="text1"
         style="font-size:6.35px;line-height:1.25;font-family:'Accanthis ADF Std';-inkscape-font-specification:'Accanthis ADF Std, Normal';font-variant-ligatures:none;text-align:center;text-anchor:middle;stroke-width:0.264583"
         aria-label="Bookworm">
        <path
           style="font-style:italic;-inkscape-font-specification:'Accanthis ADF Std, Italic'"
           d="m 14.147592,91.314995 h -0.88265 c -0.01905,0.01905 -0.03175,0.0127 -0.05715,0.0762 0,0.0381 -0.0063,0.0635 0.0127,0.08255 h 0.0635 c 0.1651,0 0.23495,0.01905 0.23495,0.09525 0,0.01905 -0.0063,0.0381 -0.0127,0.0635 l -1.02235,3.81 c -0.03175,0.1397 -0.1524,0.1524 -0.3683,0.15875 -0.0127,0.0127 -0.0635,0.0508 -0.0635,0.12065 0,0.01905 0.0063,0.03175 0.01905,0.0381 h 0.83185 c 0.40005,0 0.7747,0.0762 1.17475,0.0762 0.996949,0 1.822449,-0.9017 1.822449,-1.67005 0,-0.45085 -0.28575,-0.81915 -0.71755,-0.9652 0.76835,-0.18415 0.94615,-0.94615 0.94615,-1.2065 0,-0.4826 -0.45085,-0.74295 -0.9906,-0.74295 -0.3937,0 -0.69215,0.0635 -0.990599,0.0635 z m -0.0254,4.34975 c -0.09525,0 -0.2667,0.0127 -0.45085,0.0127 -0.32385,0 -0.66675,-0.0381 -0.66675,-0.24765 0,-0.01905 0,-0.0381 0.0063,-0.0635 l 0.5207,-1.9558 h 1.162049 c 0.43815,0 0.62865,0.45085 0.62865,0.86995 0,0.6223 -0.50165,1.3843 -1.200149,1.3843 z m 0.438149,-2.52095 h -0.958849 l 0.4064,-1.5113 c 0.03175,-0.12065 0.08255,-0.15875 0.20955,-0.15875 0.228599,0 0.463549,-0.05715 0.698499,-0.05715 0.37465,0 0.6477,0.29845 0.6477,0.6477 0,0.3683 -0.3937,1.07315 -1.0033,1.0795 z m 3.016247,2.5146 c -0.52705,0 -0.67945,-0.33655 -0.67945,-0.74295 0,-0.7366 0.4572,-1.84785 1.143,-1.84785 0.53975,0 0.6985,0.3048 0.6985,0.69215 0,0.56515 -0.3556,1.89865 -1.16205,1.89865 z m 1.64465,-1.7145 c 0,-0.5715 -0.34925,-1.0414 -1.0287,-1.0414 -0.99695,0 -1.8161,1.0033 -1.8161,1.8796 0,0.5715 0.34925,1.0414 1.0287,1.0414 0.99695,0 1.8161,-1.0033 1.8161,-1.8796 z m 1.676405,1.7145 c -0.52705,0 -0.67945,-0.33655 -0.67945,-0.74295 0,-0.7366 0.4572,-1.84785 1.143,-1.84785 0.53975,0 0.6985,0.3048 0.6985,0.69215 0,0.56515 -0.3556,1.89865 -1.16205,1.89865 z m 1.64465,-1.7145 c 0,-0.5715 -0.34925,-1.0414 -1.0287,-1.0414 -0.99695,0 -1.8161,1.0033 -1.8161,1.8796 0,0.5715 0.34925,1.0414 1.0287,1.0414 0.99695,0 1.8161,-1.0033 1.8161,-1.8796 z m 2.565405,0.0635 h -0.06985 c -0.18415,0 -0.5207,-0.0127 -0.76835,-0.2286 0.27305,-0.31115 0.6858,-0.7112 1.244599,-0.7112 0.19685,0 0.26035,0.13335 0.26035,0.2794 0,0.23495 -0.2032,0.6604 -0.666749,0.6604 z m 1.079499,-0.5461 c 0,-0.38735 -0.3556,-0.5588 -0.66675,-0.5588 -0.838199,0 -1.333499,0.6604 -1.676399,1.0922 l 0.7239,-2.6797 c 0.0254,-0.10795 0.0762,-0.2159 0.14605,-0.3175 -0.3302,0 -0.6604,0.1651 -0.98425,0.3175 l 0.24765,0.3175 -1.12395,4.191 0.5207,-0.0635 0.43815,-1.63195 c 0.2286,0.59055 0.78105,1.70815 1.39065,1.70815 0.279399,0 0.552449,-0.3302 0.673099,-0.42545 l -0.06985,-0.09525 c -0.05715,0.04445 -0.3302,0.3048 -0.3937,0.3048 -0.215899,-0.0127 -0.990599,-1.0541 -1.111249,-1.59385 0.2794,0.1778 0.5461,0.254 0.8001,0.254 h 0.01905 c 0.584199,0 1.066799,-0.4064 1.066799,-0.81915 z"
           id="path1" />
        <path
           style="font-style:italic;-inkscape-font-specification:'Accanthis ADF Std, Italic';fill:#999999"
           d="m 31.057642,93.359695 c 0,-0.24765 -0.0508,-0.45085 -0.20955,-0.45085 -0.12065,0 -0.29845,0.0762 -0.29845,0.23495 0,0.17145 0.2286,0.3175 0.2286,0.66675 0,0.70485 -0.59055,1.8542 -1.18745,1.8542 h -0.0064 c -0.3683,0 -0.47625,-0.56515 -0.47625,-1.02235 v -0.0381 c 0,-0.4445 0.1778,-1.0414 0.52705,-1.69545 l -0.5588,0.1651 c -0.32385,0.57785 -0.46355,1.1176 -0.46355,1.5621 0,0.08255 0.0064,0.15875 0.01905,0.23495 -0.2413,0.4445 -0.56515,0.7874 -0.889,0.7874 h -0.0063 c -0.3683,0 -0.47625,-0.56515 -0.47625,-1.02235 v -0.0381 c 0,-0.4445 0.15875,-0.9779 0.51435,-1.63195 h -0.79375 c -0.2413,0 -0.40005,0.1651 -0.4953,0.47625 h 0.1524 c 0.0508,-0.19685 0.13335,-0.31115 0.3429,-0.31115 h 0.23495 c -0.3175,0.56515 -0.4445,1.0287 -0.4445,1.46685 0,0.6477 0.1778,1.22555 0.9017,1.22555 0.40005,0 0.7366,-0.3175 0.9906,-0.7239 0.12065,0.52705 0.4318,0.73025 0.85725,0.73025 0.80645,0 1.5367,-1.47955 1.5367,-2.47015 z"
           id="path2" />
        <path
           style="font-style:italic;-inkscape-font-specification:'Accanthis ADF Std, Italic'"
           d="m 32.58799,95.658395 c -0.52705,0 -0.67945,-0.33655 -0.67945,-0.74295 0,-0.7366 0.4572,-1.84785 1.143,-1.84785 0.53975,0 0.6985,0.3048 0.6985,0.69215 0,0.56515 -0.3556,1.89865 -1.16205,1.89865 z m 1.64465,-1.7145 c 0,-0.5715 -0.34925,-1.0414 -1.0287,-1.0414 -0.99695,0 -1.8161,1.0033 -1.8161,1.8796 0,0.5715 0.34925,1.0414 1.0287,1.0414 0.99695,0 1.8161,-1.0033 1.8161,-1.8796 z m 3.200404,-0.76835 c 0,-0.20955 -0.2794,-0.27305 -0.4826,-0.27305 -0.4572,0 -0.90805,0.4699 -1.2192,0.79375 l 0.127,-0.47625 c 0.03175,-0.10795 0.0762,-0.2159 0.1524,-0.3175 -0.3302,0 -0.66675,0.1651 -0.9906,0.3175 l 0.254,0.3175 -0.61595,2.286 0.5207,-0.0635 0.5334,-2.00025 c 0.2413,-0.18415 0.7366,-0.53975 1.0287,-0.53975 0.3048,0 0.1651,0.18415 0.4064,0.18415 0.03175,0 0.28575,-0.03175 0.28575,-0.2286 z m 1.31446,-0.27305 c -0.3302,0 -0.6604,0.1651 -0.98425,0.3175 l 0.24765,0.3175 -0.61595,2.286 0.5207,-0.0635 0.5334,-2.00025 c 0.2413,-0.18415 0.7366,-0.53975 1.03505,-0.53975 0.19685,0 0.254,0.13335 0.254,0.2921 0,0.1143 -0.0254,0.2413 -0.05715,0.3429 l -0.52705,1.9685 0.5207,-0.0635 0.5334,-1.9939 c 0.24765,-0.1778 0.75565,-0.5461 1.0414,-0.5461 0.2032,0 0.26035,0.1397 0.26035,0.3048 0,0.10795 -0.03175,0.23495 -0.05715,0.3302 l -0.42545,1.5875 c -0.0064,0.01905 -0.0064,0.04445 -0.0064,0.0635 0,0.1651 0.17145,0.254 0.3556,0.254 0.2794,0 0.60325,-0.254 0.7239,-0.34925 l -0.06985,-0.09525 c -0.05715,0.04445 -0.31115,0.2286 -0.37465,0.2286 -0.08255,0 -0.10795,-0.06985 -0.10795,-0.14605 0,-0.0381 0.0127,-0.08255 0.01905,-0.1143 l 0.42545,-1.5875 c 0.01905,-0.08255 0.03175,-0.15875 0.03175,-0.23495 0,-0.3175 -0.1905,-0.5588 -0.56515,-0.5588 -0.4445,0 -0.9271,0.47625 -1.2319,0.7874 0.01905,-0.0762 0.03175,-0.14605 0.03175,-0.2159 0,-0.3175 -0.2032,-0.5715 -0.5715,-0.5715 -0.45085,0 -0.90805,0.47625 -1.2192,0.79375 l 0.127,-0.47625 c 0.03175,-0.10795 0.0762,-0.2159 0.1524,-0.3175 z"
           id="path3" />
      </g>
      <path
         d="m 31.510921,91.148187 c 0,-0.2159 -0.2794,-0.26035 -0.48895,-0.26035 -0.79375,0 -1.8542,1.22555 -2.032,1.905 l -0.01905,0.0635 h -0.2413 l -0.1651,0.15875 h 0.36195 l -0.70485,2.63525 c -0.1016,0.38735 -0.3937,1.42875 -1.0033,1.42875 -0.2667,0 -0.48895,-0.41275 -0.7112,-0.41275 -0.1905,0 -0.2921,0.15875 -0.2921,0.2667 0,0.2921 0.6223,0.3048 0.85725,0.3048 0.7239,0 1.49225,-0.9906 1.651,-1.5875 l 0.70485,-2.63525 h 0.42545 l 0.1651,-0.15875 h -0.5461 c 0.17145,-0.65405 0.3683,-1.651 1.3462,-1.651 0.31115,0 0.1651,0.18415 0.4064,0.18415 0.0254,0 0.28575,-0.0254 0.28575,-0.2413 z"
         id="text2"
         style="font-style:italic;font-size:6.35px;line-height:1.25;font-family:'Accanthis ADF Std';-inkscape-font-specification:'Accanthis ADF Std, Italic';font-variant-ligatures:none;text-align:center;text-anchor:middle;stroke-width:0.264583"
         aria-label="f" />
    </g>
  </g>
</svg>
